<svg width="24" height="24" viewBox="0 0 24 24" fill="none" xmlns="http://www.w3.org/2000/svg">
<path fill-rule="evenodd" clip-rule="evenodd" d="M4.575 3C4.15728 3 3.75668 3.16594 3.46131 3.46131C3.16594 3.75668 3 4.15728 3 4.575V9.525C3 10.3944 3.7056 11.1 4.575 11.1H9.525C9.94272 11.1 10.3433 10.9341 10.6387 10.6387C10.9341 10.3433 11.1 9.94272 11.1 9.525V4.575C11.1 4.15728 10.9341 3.75668 10.6387 3.46131C10.3433 3.16594 9.94272 3 9.525 3H4.575ZM14.475 3C14.0573 3 13.6567 3.16594 13.3613 3.46131C13.0659 3.75668 12.9 4.15728 12.9 4.575V9.525C12.9 10.3944 13.6056 11.1 14.475 11.1H19.425C19.8427 11.1 20.2433 10.9341 20.5387 10.6387C20.8341 10.3433 21 9.94272 21 9.525V4.575C21 4.15728 20.8341 3.75668 20.5387 3.46131C20.2433 3.16594 19.8427 3 19.425 3H14.475ZM12.9 14.475C12.9 13.6056 13.6056 12.9 14.475 12.9H19.425C20.2944 12.9 21 13.6056 21 14.475V19.425C21 19.8427 20.8341 20.2433 20.5387 20.5387C20.2433 20.8341 19.8427 21 19.425 21H14.475C14.0573 21 13.6567 20.8341 13.3613 20.5387C13.0659 20.2433 12.9 19.8427 12.9 19.425V14.475ZM4.575 12.9C4.15728 12.9 3.75668 13.0659 3.46131 13.3613C3.16594 13.6567 3 14.0573 3 14.475V19.425C3 20.2944 3.7056 21 4.575 21H9.525C9.94272 21 10.3433 20.8341 10.6387 20.5387C10.9341 20.2433 11.1 19.8427 11.1 19.425V14.475C11.1 14.0573 10.9341 13.6567 10.6387 13.3613C10.3433 13.0659 9.94272 12.9 9.525 12.9H4.575Z" fill="#3C57C3"/>
</svg>
