<svg width="24" height="24" viewBox="0 0 24 24" fill="none" xmlns="http://www.w3.org/2000/svg">
<path d="M14.2399 1.32733C14.5828 1.70456 14.5836 2.27246 14.2602 2.6498L14.1726 2.73995L5.08598 10.999L21.5 11C22.0523 11 22.5 11.4477 22.5 12C22.5 12.5128 22.1139 12.9355 21.6166 12.9933L21.5 13L5.08398 12.999L14.1726 21.2601C14.5499 21.603 14.6045 22.1683 14.3185 22.5746L14.2399 22.6727C13.897 23.0499 13.3317 23.1046 12.9254 22.8186L12.8273 22.7399L1.8273 12.7399C1.79324 12.709 1.76183 12.6762 1.73308 12.642C1.69208 12.5929 1.65554 12.5398 1.6243 12.4833C1.4586 12.1837 1.4586 11.8163 1.62411 11.5167L1.67502 11.4346L1.75338 11.3347L1.8273 11.2601L12.8273 1.26007C13.236 0.88856 13.8684 0.918677 14.2399 1.32733Z" fill="#212020"/>
</svg>
