<svg width="20" height="20" viewBox="0 0 20 20" fill="none" xmlns="http://www.w3.org/2000/svg">
<path fill-rule="evenodd" clip-rule="evenodd" d="M11.8182 11.834V14.5612C11.8182 15.4183 11.8182 15.8469 11.5519 16.1132H11.5519C11.2856 16.3794 10.8571 16.3794 10 16.3794C9.1429 16.3794 8.71435 16.3794 8.44808 16.1132H8.44808C8.18182 15.8469 8.18182 15.4183 8.18182 14.5612V11.834C8.18182 10.8298 8.99584 10.0158 10 10.0158C11.0041 10.0158 11.8182 10.8298 11.8182 11.834ZM7.80585 0.640137C8.5284 0.246301 9.22001 0 10 0C10.78 0 11.4716 0.246302 12.1941 0.640138C12.8864 1.01745 13.6774 1.57117 14.6491 2.25136L14.692 2.2814L16.5101 3.55412L16.5439 3.57776C17.2752 4.08967 17.874 4.50877 18.3372 4.90035C18.8216 5.30983 19.2074 5.7289 19.4863 6.26449C19.7651 6.80008 19.8872 7.35649 19.9448 7.98815C20 8.59221 20 9.32296 20 10.2157V10.2569V14.6521L20 14.712C20 15.5179 20.0001 16.2123 19.9253 16.7683C19.8452 17.3642 19.6645 17.9355 19.2012 18.3988C18.7379 18.8621 18.1666 19.0428 17.5707 19.1229C17.0146 19.1977 16.3203 19.1976 15.5144 19.1976L15.4545 19.1976H4.54545L4.48563 19.1976C3.67973 19.1976 2.98534 19.1977 2.42928 19.1229C1.83336 19.0428 1.26213 18.8621 0.798803 18.3988C0.335475 17.9355 0.154797 17.3642 0.0746775 16.7683C-8.19862e-05 16.2123 -4.30814e-05 15.5179 2.21811e-06 14.712L4.38555e-06 14.6521V10.2569L3.95206e-06 10.2157C-8.94421e-06 9.32295 -1.95652e-05 8.5922 0.055145 7.98814C0.112829 7.35649 0.23488 6.80008 0.513737 6.26449C0.792594 5.7289 1.17844 5.30983 1.66282 4.90035C2.12605 4.50875 2.72471 4.0897 3.45608 3.57776L3.48986 3.55412L5.30804 2.28139L5.35093 2.25137C6.32259 1.57118 7.11361 1.01745 7.80585 0.640137Z" fill="#AABBD6"/>
</svg>