<svg width="152" height="19" viewBox="0 0 152 19" fill="none" xmlns="http://www.w3.org/2000/svg">
<g clip-path="url(#clip0_7344_537)">
<path d="M0 13.0947H3.53951L4.35479 10.9814H8.09315L8.90842 13.0947H12.4479L8.59027 3.91069C8.39142 3.43668 8.07326 3.06142 7.59602 2.86392C7.39717 2.78491 7.17844 2.72566 6.93982 2.70591C6.40293 2.64666 5.72684 2.64666 5.22972 2.76516C4.97122 2.82441 4.7326 2.90342 4.57352 3.02192C4.21559 3.23918 4.01675 3.55518 3.85767 3.93044L0 13.0947ZM6.08477 6.00425C6.10466 5.96475 6.1842 5.78699 6.22397 5.78699C6.26374 5.78699 6.32339 5.96475 6.36316 6.00425L7.29775 8.61132H5.15018L6.08477 6.00425ZM14.8341 2.78491H11.2548L14.8739 11.5541C15.0529 12.0084 15.2915 12.4232 15.6892 12.7194C15.888 12.8774 16.1465 12.9959 16.4249 13.0749C17.0016 13.2527 17.956 13.2527 18.5327 13.0749C19.0497 12.9169 19.4474 12.6404 19.7457 12.1862C19.8849 11.9887 19.9843 11.7714 20.0837 11.5344L23.7028 2.76516H20.1036L17.6578 9.7766C17.6379 9.87535 17.5981 9.9346 17.5583 9.95435C17.4788 10.0136 17.4589 10.0136 17.3794 9.95435C17.3396 9.9346 17.2998 9.87535 17.28 9.7766L14.8341 2.78491ZM27.3417 2.78491H23.9812V13.1144H27.3417V2.78491ZM27.64 13.0947H31.1795L31.9948 10.9814H35.7331L36.5484 13.0947H40.0879L36.2501 3.91069C36.0513 3.43668 35.7331 3.06142 35.236 2.86392C35.0372 2.78491 34.8184 2.72566 34.5798 2.70591C34.0429 2.64666 33.3668 2.64666 32.8498 2.76516C32.5913 2.82441 32.3726 2.90342 32.1936 3.02192C31.8357 3.23918 31.6368 3.55518 31.4778 3.93044L27.64 13.0947ZM33.7248 6.00425C33.7446 5.96475 33.8242 5.78699 33.8639 5.78699C33.9037 5.78699 33.9634 5.96475 34.0031 6.00425L34.9377 8.61132H32.81L33.7248 6.00425Z" fill="#32338E"/>
<path d="M46.7095 13.0752L48.5985 5.3132H52.317L52.9335 2.74563H42.1558L41.5195 5.3132H45.238L43.3489 13.0752H46.7095ZM51.0046 13.0752H54.3652L56.0554 6.12297C56.0753 5.98472 56.115 5.88596 56.1548 5.76746C56.2145 5.58971 56.4928 5.3527 56.6917 5.33295C56.7712 5.3132 56.8707 5.3132 56.9701 5.3132H58.8194C58.9785 5.3132 59.1375 5.3132 59.2966 5.33295C59.5949 5.3527 59.7142 5.55021 59.7738 5.82671C59.8136 5.94522 59.7937 6.16247 59.7142 6.43898C59.6347 6.73524 59.4955 7.09075 59.2767 7.28825C58.9983 7.54501 58.6205 7.60426 58.2626 7.60426H57.7257C57.2882 7.60426 56.9104 7.70301 56.5724 7.94002C56.2343 8.15727 56.0355 8.43378 55.9559 8.76954L55.8963 8.9868C55.8366 9.24355 55.8565 9.48056 55.9559 9.71757C56.0554 9.95457 56.1548 10.1718 56.2741 10.3891L57.6263 13.0752H61.5038L61.5834 12.9764L59.4557 10.0138L59.4756 9.95457H59.913C60.3306 9.95457 60.7283 9.85582 61.1061 9.65831C61.5038 9.46081 61.8419 9.12505 62.16 8.67079C62.2992 8.47328 62.4185 8.23628 62.5378 7.99927C62.7367 7.56476 62.9157 7.09075 63.0549 6.61673C63.2139 6.04397 63.3332 5.5107 63.373 4.91819C63.4128 4.48368 63.3531 4.10842 63.2139 3.77266C63.1145 3.5159 62.9554 3.33815 62.7765 3.19989C62.4185 2.94314 61.9811 2.80488 61.5436 2.78513C61.3448 2.78513 61.1459 2.76538 60.9868 2.76538H55.3196C55.1208 2.76538 54.8822 2.78513 54.6038 2.86414C54.0271 2.98264 53.5101 3.45665 53.2914 3.98992C53.192 4.24667 53.1124 4.50343 53.0528 4.74043L51.0046 13.0752ZM61.5237 13.0752H65.0632L66.3955 10.9618H70.1339L70.4321 13.0752H73.9716L72.3809 3.89116C72.3212 3.61466 72.2417 3.37765 72.1025 3.21964C71.8241 2.88389 71.4463 2.72588 71.0088 2.68638C70.4719 2.62713 69.7958 2.62713 69.2788 2.74563C68.8016 2.84438 68.3641 3.04189 68.0261 3.3974C67.8869 3.5554 67.7477 3.73316 67.6284 3.91091L61.5237 13.0752ZM69.3584 5.98472C69.3782 5.94522 69.4578 5.78721 69.5373 5.76746C69.597 5.76746 69.6169 5.94522 69.6169 5.98472L69.9151 8.59179H67.7875L69.3584 5.98472ZM77.6305 13.0752L78.6247 9.00655H83.1386L83.7152 6.67599H79.1815L79.3605 5.94522C79.3803 5.84646 79.4201 5.74771 79.4798 5.62921C79.5593 5.45145 79.7184 5.29345 79.9172 5.2737C80.0167 5.25395 80.0962 5.25395 80.1757 5.25395H85.7435L86.3599 2.74563H78.6247C78.4457 2.74563 78.2071 2.76538 77.9486 2.82463C77.4316 2.90364 76.855 3.3579 76.6163 3.83191C76.497 4.06892 76.4175 4.28617 76.3578 4.50343L74.25 13.0752H77.6305ZM87.9507 13.0752L88.945 9.00655H93.4787L94.0554 6.67599H89.5415L89.7205 5.94522C89.7404 5.84646 89.7801 5.74771 89.8398 5.62921C89.9193 5.45145 90.0784 5.29345 90.2772 5.2737C90.3568 5.25395 90.4562 5.25395 90.5358 5.25395H96.1035L96.7199 2.74563H88.9847C88.8058 2.74563 88.5672 2.76538 88.3086 2.82463C87.7916 2.90364 87.215 3.3579 86.9764 3.83191C86.857 4.06892 86.7775 4.28617 86.7179 4.50343L84.6101 13.0752H87.9507ZM98.2909 13.0752L100.816 2.76538H97.4557L94.9303 13.0949H98.2909V13.0752ZM108.571 13.0752L109.208 10.5076H106.324C106.046 10.5076 105.787 10.5076 105.529 10.4878C105.27 10.4681 105.052 10.4483 104.833 10.3891C104.634 10.3298 104.455 10.2508 104.316 10.1521C103.998 9.91507 103.958 9.53981 103.978 9.1843C103.998 8.76954 104.077 8.37453 104.177 7.97952C104.256 7.66351 104.356 7.36725 104.455 7.05125C104.574 6.71549 104.734 6.37973 104.972 6.12297C105.29 5.74771 105.628 5.53046 106.086 5.41195C106.543 5.29345 107.06 5.3132 107.537 5.3132H110.321L110.938 2.74563H106.543C106.245 2.74563 105.927 2.76538 105.608 2.78513C104.893 2.84438 104.197 3.04189 103.56 3.37765C102.606 3.87141 101.85 4.79969 101.433 5.78721C101.154 6.43898 100.916 7.1895 100.697 8.05852C100.578 8.55228 100.498 8.9868 100.438 9.38181C100.379 9.75707 100.359 10.1126 100.359 10.4088C100.359 10.9223 100.458 11.3964 100.717 11.8309C100.955 12.3049 101.453 12.6801 101.95 12.8579C102.208 12.9567 102.506 13.0159 102.844 13.0554C103.183 13.0752 103.54 13.1147 103.958 13.1147H108.571V13.0752Z" fill="#00ACEC"/>
<path d="M62.0406 18.6248C62.2793 18.6248 62.5179 18.5853 62.7366 18.5063C62.9752 18.4273 63.2139 18.3088 63.4724 18.1113L63.6513 18.4273C63.4127 18.6051 63.1343 18.7434 62.8162 18.8619C62.498 18.9606 62.1997 19.0199 61.8816 19.0199C61.5634 19.0199 61.285 18.9804 61.0464 18.9014C60.8078 18.8224 60.6288 18.7039 60.4896 18.5458C60.3504 18.3878 60.251 18.1903 60.2311 17.9533C60.1913 17.7163 60.2112 17.4398 60.3107 17.1436C60.3902 16.8276 60.5095 16.5708 60.6686 16.3338C60.8277 16.0968 61.0265 15.8993 61.2452 15.7413C61.464 15.5833 61.7225 15.4648 62.0009 15.3858C62.2793 15.3068 62.5775 15.2475 62.8758 15.2475C63.1741 15.2475 63.4724 15.3068 63.711 15.4055C63.9695 15.5043 64.1484 15.6623 64.3075 15.84L63.9695 16.156C63.8303 15.9783 63.6513 15.84 63.4525 15.761C63.2735 15.682 63.0548 15.6425 62.8162 15.6425C62.6372 15.6425 62.4582 15.6623 62.2793 15.7413C62.1003 15.8005 61.9412 15.8993 61.7821 16.0178C61.6231 16.1363 61.5038 16.2943 61.3844 16.4918C61.2651 16.6695 61.1657 16.9066 61.1061 17.1633C61.0265 17.4201 61.0066 17.6571 61.0265 17.8348C61.0464 18.0126 61.1061 18.1706 61.1856 18.3088C61.2651 18.4471 61.3844 18.5261 61.5435 18.5853C61.6628 18.5853 61.8418 18.6248 62.0406 18.6248ZM69.4577 15.5833C69.2787 15.5833 69.1197 15.603 68.9407 15.682C68.7816 15.7413 68.6225 15.84 68.4635 15.9585C68.3044 16.0968 68.1851 16.235 68.0658 16.4325C67.9464 16.63 67.847 16.8473 67.7874 17.1238C67.7078 17.3806 67.6879 17.6176 67.7078 17.8151C67.7277 18.0126 67.7675 18.1706 67.847 18.2891C67.9266 18.4076 68.026 18.5063 68.1652 18.5656C68.3044 18.6248 68.4436 18.6643 68.6424 18.6643C68.8214 18.6643 68.9805 18.6446 69.1594 18.5656C69.3185 18.5063 69.4776 18.4076 69.6367 18.2891C69.7759 18.1508 69.9151 18.0126 70.0344 17.8151C70.1537 17.6176 70.2531 17.4003 70.3128 17.1238C70.3923 16.8671 70.4122 16.63 70.3923 16.4325C70.3724 16.235 70.3326 16.077 70.2531 15.9585C70.1736 15.8203 70.0741 15.7413 69.9349 15.682C69.7957 15.603 69.6367 15.5833 69.4577 15.5833ZM69.5571 15.208C69.8753 15.208 70.1338 15.2475 70.3724 15.3463C70.611 15.4253 70.79 15.5438 70.9093 15.7018C71.0485 15.8598 71.128 16.0573 71.1678 16.2943C71.2076 16.5313 71.1678 16.8078 71.0883 17.1041C71.0087 17.4201 70.8894 17.6768 70.7105 17.9138C70.5514 18.1508 70.3525 18.3483 70.1338 18.5063C69.9151 18.6643 69.6565 18.7829 69.3782 18.8619C69.0998 18.9409 68.8015 18.9804 68.5032 18.9804C68.205 18.9804 67.9266 18.9409 67.6879 18.8619C67.4493 18.7829 67.2704 18.6643 67.1312 18.5063C66.992 18.3483 66.9124 18.1508 66.8727 17.9138C66.8329 17.6768 66.8528 17.4003 66.9522 17.1041C67.0317 16.788 67.1511 16.5313 67.3101 16.2943C67.4692 16.0573 67.6681 15.8598 67.8868 15.7018C68.1055 15.5438 68.364 15.4253 68.6424 15.3463C68.9606 15.2673 69.2589 15.208 69.5571 15.208ZM76.5964 18.3878H76.656L78.8434 15.3068H79.9569L78.9428 18.9014H78.1872L78.9627 16.0375H78.9428L76.9145 18.9014H76.0396L75.5822 16.0375H75.5226L74.7471 18.9014H73.9915L74.9658 15.3068H76.0794L76.5964 18.3878ZM85.2861 15.3265C85.5446 15.3265 85.7633 15.3463 85.9621 15.4055C86.1411 15.4648 86.3002 15.5438 86.4195 15.6425C86.5189 15.7413 86.5985 15.8795 86.6382 16.0375C86.6581 16.1955 86.6581 16.3733 86.6184 16.5708C86.5587 16.7683 86.4792 16.9461 86.3598 17.1041C86.2405 17.2621 86.1013 17.3806 85.9224 17.4991C85.7633 17.5978 85.5645 17.6768 85.3457 17.7361C85.127 17.7953 84.8884 17.8151 84.6299 17.8151H83.5163L83.2379 18.9014H82.4823L83.4567 15.3068H85.2861V15.3265ZM84.0731 15.7018L83.5958 17.4398H84.7094C84.9878 17.4398 85.2065 17.3608 85.4054 17.2423C85.5843 17.1041 85.7235 16.8868 85.8031 16.5708C85.8826 16.2745 85.8826 16.0573 85.7633 15.919C85.6639 15.7808 85.465 15.7215 85.1866 15.7215H84.0731V15.7018ZM90.2175 17.6571H91.8282L91.5697 15.761H91.51L90.2175 17.6571ZM92.2458 15.3265L92.7429 18.9211H91.9873L91.8878 18.0521H89.9391L89.3625 18.9211H88.6267L91.0726 15.3265H92.2458ZM100.617 15.3265L99.6231 18.9211H98.6487L97.5153 15.998H97.4556L96.6602 18.9211H95.9046L96.8789 15.3265H97.8533L98.9867 18.2496H99.0464L99.8418 15.3265H100.617ZM105.489 17.8348L105.211 18.9211H104.455L104.733 17.8348L103.739 15.3265H104.555L105.27 17.1436H105.29L107 15.3265H107.836L105.489 17.8348Z" fill="#32338E"/>
<path fill-rule="evenodd" clip-rule="evenodd" d="M123.267 0.414761H145.697C149.276 0.454262 150.946 0.217256 151.98 0C151.98 3.7921 147.427 5.25364 144.464 5.25364H119.667C116.088 5.21414 114.08 6.83368 113.304 7.90021C113.304 7.52495 113.96 4.93763 114.159 4.42412C114.855 2.70582 116.347 1.34304 118.196 0.730769C119.508 0.316008 120.841 0.434511 123.267 0.414761Z" fill="#32338E"/>
<path fill-rule="evenodd" clip-rule="evenodd" d="M140.546 5.9841C144.126 6.0236 145.796 5.78659 146.83 5.56934C146.83 9.36144 142.276 10.8032 139.313 10.8032H118.335C114.756 10.7637 112.747 12.3833 111.972 13.4498C111.972 13.0745 112.628 10.4872 112.827 9.9737C113.523 8.25541 115.014 6.89262 116.863 6.28035C118.196 5.86559 119.528 5.9841 121.954 5.96435C128.158 5.96435 134.342 5.9841 140.546 5.9841Z" fill="#00ACEC"/>
<path fill-rule="evenodd" clip-rule="evenodd" d="M133.07 11.5339H135.416C138.995 11.5734 140.666 11.3364 141.7 11.1191C141.7 14.9112 137.146 16.3728 134.183 16.3728H133.07H117.062C113.483 16.3333 111.475 17.9528 110.699 19.0193C110.699 18.6441 111.355 16.0568 111.554 15.5433C112.25 13.825 113.742 12.4424 115.591 11.8499C116.903 11.4351 118.236 11.5537 120.642 11.5339H133.07Z" fill="#A6D7F6"/>
</g>
<defs>
<clipPath id="clip0_7344_537">
<rect width="152" height="19" fill="white"/>
</clipPath>
</defs>
</svg>
