<svg width="24" height="24" viewBox="0 0 24 24" fill="none" xmlns="http://www.w3.org/2000/svg">
<path fill-rule="evenodd" clip-rule="evenodd" d="M5.18177 22.3732C4.11968 22.7376 3.07175 23.142 2.0402 23.5856L2.0366 23.5868L1.25901 23.9253C1.09217 23.9979 0.907244 24.0182 0.728629 23.9835C0.550013 23.9489 0.386091 23.8609 0.258481 23.7312C0.13087 23.6014 0.0455639 23.4361 0.0138117 23.2568C-0.0179406 23.0776 0.00535201 22.893 0.0806183 22.7273L0.0854184 22.7165L0.102218 22.6805L0.162218 22.5437C0.700665 21.3448 1.18515 20.1224 1.6142 18.8802C1.8074 18.3052 1.9574 17.7818 2.0366 17.3737C2.06847 17.2227 2.08773 17.0694 2.0942 16.9152V16.8696C1.29638 15.309 0.862765 13.5877 0.825969 11.8352C0.789174 10.0828 1.15016 8.34483 1.88177 6.75208C2.61337 5.15934 3.69655 3.7533 5.0498 2.63975C6.40306 1.52619 7.99115 0.73413 9.69459 0.323143C11.398 -0.0878441 13.1725 -0.10705 14.8844 0.266969C16.5964 0.640989 18.2012 1.39849 19.5782 2.48249C20.9553 3.56649 22.0686 4.94876 22.8345 6.5253C23.6004 8.10183 23.9989 9.83158 24 11.5844C24 17.9871 18.8112 23.1774 12.4117 23.1774C10.5762 23.18 8.76657 22.7446 7.13295 21.9075C6.97241 21.9122 6.81259 21.9311 6.65536 21.9639C6.25696 22.0407 5.74577 22.186 5.18177 22.3732ZM7.50015 13.7968C8.49425 13.7968 9.30013 12.9906 9.30013 11.9962C9.30013 11.0018 8.49425 10.1957 7.50015 10.1957C6.50605 10.1957 5.70017 11.0018 5.70017 11.9962C5.70017 12.9906 6.50605 13.7968 7.50015 13.7968ZM12.3001 13.7968C13.2942 13.7968 14.1001 12.9906 14.1001 11.9962C14.1001 11.0018 13.2942 10.1957 12.3001 10.1957C11.306 10.1957 10.5001 11.0018 10.5001 11.9962C10.5001 12.9906 11.306 13.7968 12.3001 13.7968ZM18.9 11.9962C18.9 12.9906 18.0942 13.7968 17.1001 13.7968C16.106 13.7968 15.3001 12.9906 15.3001 11.9962C15.3001 11.0018 16.106 10.1957 17.1001 10.1957C18.0942 10.1957 18.9 11.0018 18.9 11.9962Z" fill="white"/>
</svg>
