<svg width="24" height="24" viewBox="0 0 24 24" fill="none" xmlns="http://www.w3.org/2000/svg">
<path fill-rule="evenodd" clip-rule="evenodd" d="M20 14.15C20 15.454 21.019 16.5 22.25 16.5C22.4489 16.5 22.6397 16.579 22.7803 16.7197C22.921 16.8603 23 17.0511 23 17.25C23 17.4489 22.921 17.6397 22.7803 17.7803C22.6397 17.921 22.4489 18 22.25 18H1.75C1.55109 18 1.36032 17.921 1.21967 17.7803C1.07902 17.6397 1 17.4489 1 17.25C1 17.0511 1.07902 16.8603 1.21967 16.7197C1.36032 16.579 1.55109 16.5 1.75 16.5C2.981 16.5 4 15.454 4 14.15V8.983C4 4.665 7.702 1 12 1C16.298 1 20 4.665 20 8.983V14.15Z" fill="white"/>
<path d="M10.42 20.414C10.3268 20.2435 10.1711 20.1158 9.98559 20.0579C9.80011 19.9999 9.59938 20.0162 9.42568 20.1033C9.25198 20.1904 9.11887 20.3415 9.05439 20.5248C8.98991 20.7081 8.99909 20.9093 9.08 21.086C9.63 22.188 10.703 23 12 23C13.296 23 14.369 22.188 14.92 21.086C14.9683 20.9976 14.9983 20.9004 15.0082 20.8002C15.0182 20.6999 15.0078 20.5987 14.9778 20.5026C14.9477 20.4065 14.8986 20.3173 14.8334 20.2406C14.7682 20.1638 14.6881 20.101 14.5981 20.0559C14.5081 20.0107 14.4099 19.9842 14.3093 19.9778C14.2088 19.9714 14.108 19.9854 14.013 20.0188C13.918 20.0522 13.8307 20.1044 13.7563 20.1723C13.6819 20.2402 13.6219 20.3224 13.58 20.414C13.233 21.105 12.627 21.5 12 21.5C11.373 21.5 10.767 21.105 10.42 20.414Z" fill="white"/>
</svg>
