<svg width="24" height="24" viewBox="0 0 24 24" fill="none" xmlns="http://www.w3.org/2000/svg">
<path fill-rule="evenodd" clip-rule="evenodd" d="M9.52891 2.84623C10.2536 0.384591 13.7464 0.384591 14.4711 2.84623L14.6 3.27598C14.6506 3.44782 14.7381 3.61549 14.8579 3.74871C14.9776 3.88193 15.1221 3.98097 15.2876 4.04954C15.4531 4.11811 15.6352 4.14497 15.8141 4.13549C15.993 4.12601 16.1617 4.09225 16.319 4.00656L16.7273 3.79169C18.9813 2.56362 21.4471 5.01735 20.2191 7.2727L19.9934 7.68097C19.9078 7.83828 19.8633 8.01779 19.8538 8.19667C19.8443 8.37556 19.8711 8.54689 19.9397 8.71238C20.0083 8.87787 20.1181 9.02238 20.2513 9.14213C20.3845 9.26189 20.5414 9.34937 20.7133 9.39998L21.1538 9.52891C23.6154 10.2536 23.6154 13.7464 21.1538 14.4711L20.7133 14.6C20.5414 14.6506 20.3845 14.7381 20.2513 14.8579C20.1181 14.9776 20.0083 15.1221 19.9397 15.2876C19.8711 15.4531 19.8443 15.6459 19.8538 15.8248C19.8633 16.0037 19.9078 16.1617 19.9934 16.319L20.2191 16.7273C21.4485 18.9813 18.9827 21.4579 16.7273 20.2298L16.319 19.9934C16.1617 19.9078 15.993 19.874 15.8141 19.8645C15.6352 19.855 15.4531 19.8819 15.2876 19.9505C15.1221 20.019 14.9776 20.1181 14.8579 20.2513C14.7381 20.3845 14.6506 20.5522 14.6 20.724L14.4711 21.1538C13.7464 23.6154 10.2536 23.6154 9.52891 21.1538L9.39998 20.724C9.34937 20.5522 9.26189 20.3845 9.14213 20.2513C9.02238 20.1181 8.86712 20.019 8.70163 19.9505C8.53614 19.8819 8.36481 19.855 8.18593 19.8645C8.00704 19.874 7.82754 19.9078 7.67022 19.9934L7.2727 20.2298C5.01735 21.4592 2.55425 18.9827 3.78094 16.7273L3.99582 16.319C4.0815 16.1617 4.12601 16.0037 4.13549 15.8248C4.14497 15.6459 4.11811 15.4531 4.04954 15.2876C3.98097 15.1221 3.88193 14.9776 3.74871 14.8579C3.61549 14.7381 3.44782 14.6506 3.27598 14.6L2.84623 14.4711C0.384591 13.7464 0.384591 10.2536 2.84623 9.52891L3.27598 9.39998C3.44782 9.34937 3.61549 9.26189 3.74871 9.14213C3.88193 9.02238 3.98097 8.87787 4.04954 8.71238C4.11811 8.54689 4.14497 8.37556 4.13549 8.19667C4.12601 8.01779 4.0815 7.83828 3.99582 7.68097L3.78094 7.2727C2.55288 5.01872 5.01735 2.54351 7.2727 3.7702L7.67022 4.00656C7.82754 4.09225 8.00704 4.12601 8.18593 4.13549C8.36481 4.14497 8.53614 4.11811 8.70163 4.04954C8.86712 3.98097 9.02238 3.88193 9.14213 3.74871C9.26189 3.61549 9.34937 3.44782 9.39998 3.27598L9.52891 2.84623ZM12 16C14.2091 16 16 14.2091 16 12C16 9.79086 14.2091 8 12 8C9.79086 8 8 9.79086 8 12C8 14.2091 9.79086 16 12 16Z" fill="white"/>
</svg>
