<svg width="24" height="24" viewBox="0 0 24 24" fill="none" xmlns="http://www.w3.org/2000/svg">
<path d="M8.71967 12.0303C9.01256 12.3232 9.48744 12.3232 9.78033 12.0303C10.0732 11.7374 10.0732 11.2626 9.78033 10.9697L8.71967 12.0303ZM7.03033 8.21967C6.73744 7.92678 6.26256 7.92678 5.96967 8.21967C5.67678 8.51256 5.67678 8.98744 5.96967 9.28033L7.03033 8.21967ZM6.5 8.0001C6.08579 8.0001 5.75 8.33588 5.75 8.7501C5.75 9.16431 6.08579 9.5001 6.5 9.5001V8.0001ZM17.5 9.5001C17.9142 9.5001 18.25 9.16431 18.25 8.7501C18.25 8.33588 17.9142 8.0001 17.5 8.0001V9.5001ZM5.96967 8.21967C5.67678 8.51256 5.67678 8.98744 5.96967 9.28033C6.26256 9.57322 6.73744 9.57322 7.03033 9.28033L5.96967 8.21967ZM9.78033 6.53033C10.0732 6.23744 10.0732 5.76256 9.78033 5.46967C9.48744 5.17678 9.01256 5.17678 8.71967 5.46967L9.78033 6.53033ZM15.2803 10.9697C14.9874 10.6768 14.5126 10.6768 14.2197 10.9697C13.9268 11.2626 13.9268 11.7374 14.2197 12.0303L15.2803 10.9697ZM16.9697 14.7803C17.2626 15.0732 17.7374 15.0732 18.0303 14.7803C18.3232 14.4874 18.3232 14.0126 18.0303 13.7197L16.9697 14.7803ZM17.5 15.0001C17.9142 15.0001 18.25 14.6643 18.25 14.2501C18.25 13.8359 17.9142 13.5001 17.5 13.5001V15.0001ZM6.5 13.5001C6.08579 13.5001 5.75 13.8359 5.75 14.2501C5.75 14.6643 6.08579 15.0001 6.5 15.0001V13.5001ZM18.0303 14.7803C18.3232 14.4874 18.3232 14.0126 18.0303 13.7197C17.7374 13.4268 17.2626 13.4268 16.9697 13.7197L18.0303 14.7803ZM14.2197 16.4697C13.9268 16.7626 13.9268 17.2374 14.2197 17.5303C14.5126 17.8232 14.9874 17.8232 15.2803 17.5303L14.2197 16.4697ZM9.78033 10.9697L7.03033 8.21967L5.96967 9.28033L8.71967 12.0303L9.78033 10.9697ZM6.5 9.5001H17.5V8.0001H6.5V9.5001ZM7.03033 9.28033L9.78033 6.53033L8.71967 5.46967L5.96967 8.21967L7.03033 9.28033ZM14.2197 12.0303L16.9697 14.7803L18.0303 13.7197L15.2803 10.9697L14.2197 12.0303ZM17.5 13.5001H6.5V15.0001H17.5V13.5001ZM16.9697 13.7197L14.2197 16.4697L15.2803 17.5303L18.0303 14.7803L16.9697 13.7197Z" fill="white"/>
</svg>
